<svg xmlns="http://www.w3.org/2000/svg" data-name="Layer 1" viewBox="0 0 64 80" x="0px" y="0px"><title>Artboard 70</title><path d="M59.5817,59.4736l-.0011-.0011c-.9814-.96-17.1111-14.5823-18.4838-15.7417-.9722-2.7919-4.71-7.5342-5.859-8.9536a.279.279,0,0,0,.0265-.0189.7392.7392,0,0,0,.3217-.5894c.1093-1.53-3.6121-5.5086-4.4189-6.246-.1277-.1167-.3248-.2871-.579-.506-2.4715-2.1337-9.9922-8.6269-9.9922-14.4419C20.5959,6.1052,16.1534,2,11.8591,2,9.3519,2,7.58,2.6331,6.5925,3.882a4.0617,4.0617,0,0,0-.814,2.8707,1.1356,1.1356,0,0,0-1.01.8558.967.967,0,0,0,.23.767,5.2428,5.2428,0,0,0-1.1131,1.9584,4.1514,4.1514,0,0,0,1.5073,3.9134c1.3593,1.2958,1.3543,3.9461,1.34,11.0166l-.0031,2.4149c0,6.5459,5.5066,11.7771,11.0653,14.1476L17.24,44.2571c-1.7861-.1194-5.1971-.1614-5.4227,1.2094a.387.387,0,0,0,.0008.1332,1.39,1.39,0,0,0,.5515.8424,1.3681,1.3681,0,0,0,.7927.233,2.0147,2.0147,0,0,0,.38-.0382,29.4472,29.4472,0,0,1,4.5028-.0485c.2043.0086.343.0137.3921.0137.2983,0,3.118-.1208,3.2375-.1256a.3933.3933,0,0,0,.3718-.3339A1.25,1.25,0,0,0,21.73,45.19a2.5873,2.5873,0,0,0-1.8046-.73l.6455-1.723a8.2471,8.2471,0,0,0,1.6728.2155c4.3434,0,5.9171.3412,10.5251,2.2807,5.8682,2.4631,15.6264,9.4131,21.4568,13.5657,3.6511,2.6008,4.465,3.162,4.79,3.195A1.1179,1.1179,0,0,0,59.1374,62a1.0273,1.0273,0,0,0,.95-.5983A1.7353,1.7353,0,0,0,59.5817,59.4736ZM6.1226,7.5083c.049,0,.1012.0021.1552.0069A.9194.9194,0,0,1,6.862,7.83a.1842.1842,0,0,1,.0408.1278c0,.0044-.053.0843-.0541.0884a.3949.3949,0,0,0-.0387.0351.6785.6785,0,0,1-.1666.0689.7366.7366,0,0,1-.0948.0317,1.0483,1.0483,0,0,1-.3677.0055,1.1474,1.1474,0,0,1-.4239-.1625c-.1389-.0912-.2278-.2093-.2145-.2857C5.56,7.6336,5.76,7.5083,6.1226,7.5083Zm-.17,2.3733c-.0634.1562-.1186.3029-.1667.4413-.0153.0434-.0316.0888-.0459.13-.0572.1735-.1073.3367-.14.4778v.0014c-.0031.0117-.0919.4427-.1768.9928l-.0041.0276q-.0214.144-.0428.296c-.0021.0179-.0042.0358-.0071.0537q-.0214.16-.04.3215l-.0021.021c-.0133.1174-.0244.2345-.0327.3491L5.2934,13a2.9958,2.9958,0,0,1-.6444-2.4879,4.6119,4.6119,0,0,1,.9823-1.6713l.0134.0034a2.1425,2.1425,0,0,0,.3983.1153,1.936,1.936,0,0,0,.2971.0265l-.02.0465c-.0225.0485-.041.0919-.0633.1391-.0839.1862-.1625.3638-.2329.5329C5.999,9.7652,5.9756,9.823,5.9522,9.8816ZM21.1209,45.6854a.2728.2728,0,0,1,.0245.0282c-.9743.0413-2.5134.104-2.7084.104-.0449,0-.1725-.0055-.3594-.0131a27.582,27.582,0,0,0-4.6816.062c-.5391.1019-.7229-.1546-.7842-.3291.2491-.4393,2.5061-.6644,4.905-.4737a.4029.4029,0,0,0,.4126-.3036l.6005-2.6315c.0247.01.046.0162.0706.0255.1644.062.3226.1181.4758.1711.0459.0155.095.0341.14.0492.1971.0661.385.1246.5658.1763l.0184.0062L19,44.6919a.3926.3926,0,0,0,.3676.53C20.5224,45.2217,20.9615,45.5122,21.1209,45.6854ZM59.3786,61.0667a.2459.2459,0,0,1-.237.156c-.3176-.1115-2.2387-1.4792-4.462-3.0631-5.8569-4.1709-15.659-11.153-21.6069-13.65-4.7324-1.9915-6.3512-2.3419-10.8294-2.3419a7.8656,7.8656,0,0,1-1.8322-.261A14.2642,14.2642,0,0,1,18.66,41.332c-.0919-.0354-.1664-.0588-.2625-.097C14.3551,39.5888,7.5137,34.8808,7.5137,27.6788l.0029-2.4131c.0143-7.148.0194-9.93-1.4756-11.48l.001-.0241c.001-.0358.0021-.0792.005-.126l.0031-.0833c.0031-.0485.0062-.1026.01-.159.0021-.0406.0052-.084.0083-.1281.0041-.0571.0091-.117.0143-.18.0041-.0551.0091-.1129.0143-.1714.0062-.06.0112-.1212.0184-.1845.006-.0685.0143-.14.0224-.2107.0062-.0606.0134-.12.0205-.1825.0091-.0767.02-.1549.0306-.233.0083-.061.0163-.1215.0255-.1828.0124-.08.0256-.1591.0389-.2382.01-.0592.0184-.12.03-.1784.0143-.0805.0316-.158.048-.2365.0112-.0526.0213-.1077.0327-.159.0174-.074.0489-.169.0756-.2554.0213-.0713.0356-.1326.0633-.2121.02-.0609.052-.136.0766-.2014.046-.1239.0888-.2444.147-.3845.0244-.06.0582-.1318.0847-.1945.0695-.1611.1379-.3219.2206-.5.0226-.0479.05-.1026.0735-.1515.0909-.1935.187-.3914.2921-.6021A.86.86,0,0,0,7.5218,8.45c.0163-.0234.04-.0427.0542-.0675A.8216.8216,0,0,0,7.6749,8.1V8.097l.0011-.0031a.894.894,0,0,0-.0073-.2455,1.0678,1.0678,0,0,0-.0029-.116,1.0426,1.0426,0,0,0-.1583-.3487,1.3832,1.3832,0,0,0-.3739-.3511C7.1183,7.0222,7.1061,7.01,7.09,7a1.8018,1.8018,0,0,0-.4769-.2045c-.0164-.0045-.03-.0159-.046-.02a3.3666,3.3666,0,0,1,.6465-2.4142c.8334-1.0465,2.396-1.577,4.6458-1.577,3.9095,0,7.9525,3.8119,7.9525,10.1908,0,6.1744,7.7259,12.8439,10.2648,15.0353.2461.2128.4382.378.5616.4913,1.6178,1.48,4.3936,4.9874,4.18,5.6123a1.0635,1.0635,0,0,1-.3186.1308l-.001.0007a18.9514,18.9514,0,0,1-5.8436-.0785.3726.3726,0,0,0-.0491-.0055l-.0041-.0007A11.8779,11.8779,0,0,1,24.4309,33.13a.3924.3924,0,0,0-.5045.6011A4.986,4.986,0,0,0,25.68,34.42c-3.1547.1384-8.311-.127-12-2.8056a10.7191,10.7191,0,0,1-4.2945-7.4877,5.5567,5.5567,0,0,1,1.2226-4.8825c2.3488-2.4249,7.0925-1.9326,7.1416-1.9274a.3878.3878,0,0,0,.4331-.3467.3932.3932,0,0,0-.3472-.433c-.2095-.0235-5.1708-.54-7.7883,2.1591A6.29,6.29,0,0,0,8.6094,24.237a11.4689,11.4689,0,0,0,4.61,8.011c3.3946,2.4662,7.8576,3.0043,11.1073,3.0043a27.2881,27.2881,0,0,0,4.2188-.3085,31.9981,31.9981,0,0,0,3.889.2744,10.345,10.345,0,0,0,2.0179-.1625c.8181,1.0045,5.0319,6.2533,5.9388,9.0379v.0007l.0009.0038a1.6808,1.6808,0,0,1,.1267,1.1112c-.6944.7522-8.5164-2.9815-17.09-8.14a.3921.3921,0,1,0-.4043.672c1.4706.8847,13.8921,8.2984,17.2491,8.2977a1.4225,1.4225,0,0,0,.4351-.0578.8264.8264,0,0,0,.532-.4665,1.5088,1.5088,0,0,0,.0971-.5525c3.457,2.9206,16.8344,14.23,17.6933,15.0712A1.0014,1.0014,0,0,1,59.3786,61.0667ZM10.6458,9.3514a1.5058,1.5058,0,1,0-1.5-1.5A1.5073,1.5073,0,0,0,10.6458,9.3514Zm0-2.2273a.7216.7216,0,1,1,0,1.4431.7216.7216,0,0,1,0-1.4431Z"/><text x="0" y="79" fill="#000000" font-size="5px" font-weight="bold" font-family="'Helvetica Neue', Helvetica, Arial-Unicode, Arial, Sans-serif">Created by Siipkan Creative</text><text x="0" y="84" fill="#000000" font-size="5px" font-weight="bold" font-family="'Helvetica Neue', Helvetica, Arial-Unicode, Arial, Sans-serif">from the Noun Project</text></svg>